# xmcd CD database file
#
# Track frame offsets:
#	150
#	10170
#	14915
#	60082
#	73722
#	80195
#	94902
#	113507
#	119635
#	143517
#	153260
#	158820
#	163357
#	210840
#	240350
#	252462
#	258450
#
# Disc length: 3700 seconds
#
# Revision: 89
# Processed by: cddbd v1.5.2PL0 Copyright (c) Steve Scherf et al.
# Submitted via: CDex 2.00
#
DISCID=e10e7211
DTITLE=Hans Zimmer - Gladiator (Soundtrack from the Motion Picture)
DYEAR=2000
DGENRE=Soundtrack
TTITLE0=Progeny
TTITLE1=Lisa Gerrard - The Wheat
TTITLE2=The Battle
TTITLE3=Earth
TTITLE4=Lisa Gerrard, Klaus Badelt - Sorrow
TTITLE5=Hans Zimmer, Djivan Gasparyan - To Zucchabar
TTITLE6=Patricide
TTITLE7=Lisa Gerrard, Klaus Badelt - The Emperor Is Dead
TTITLE8=The Might of Rome
TTITLE9=Strength and Honor
TTITLE10=Lisa Gerrard, Klaus Badelt - Reunion
TTITLE11=Slaves to Rome
TTITLE12=Barbarian Horde
TTITLE13=Am I Not Merciful?
TTITLE14=Lisa Gerrard, Klaus Badelt - Elysium
TTITLE15=Honor Him
TTITLE16=Hans Zimmer, Lisa Gerrard, Klaus Badelt - Hans Zimmer, Lisa Gerrard and Klaus Badelt - Now We Are Free
EXTD=YEAR: 2000
EXTT0=
EXTT1=
EXTT2=
EXTT3=
EXTT4=
EXTT5=
EXTT6=
EXTT7=
EXTT8=
EXTT9=
EXTT10=
EXTT11=
EXTT12=
EXTT13=
EXTT14=
EXTT15=
EXTT16=
PLAYORDER=
